<?xml version="1.0" encoding="UTF-8" standalone="no"?>
<svg
   xmlns:dc="http://purl.org/dc/elements/1.1/"
   xmlns:cc="http://creativecommons.org/ns#"
   xmlns:rdf="http://www.w3.org/1999/02/22-rdf-syntax-ns#"
   xmlns:svg="http://www.w3.org/2000/svg"
   xmlns="http://www.w3.org/2000/svg"
   xmlns:sodipodi="http://sodipodi.sourceforge.net/DTD/sodipodi-0.dtd"
   xmlns:inkscape="http://www.inkscape.org/namespaces/inkscape"
   width="100"
   height="100"
   viewBox="0 0 100 100"
   id="svg4136"
   version="1.1"
   inkscape:version="0.91 r13725"
   sodipodi:docname="blog.svg">
  <metadata
     id="metadata4164">
    <rdf:RDF>
      <cc:Work
         rdf:about="">
        <dc:format>image/svg+xml</dc:format>
        <dc:type
           rdf:resource="http://purl.org/dc/dcmitype/StillImage" />
      </cc:Work>
    </rdf:RDF>
  </metadata>
  <defs
     id="defs4162">
    <filter
       inkscape:collect="always"
       style="color-interpolation-filters:sRGB"
       id="filter4820"
       x="-0.047991495"
       width="1.095983"
       y="-0.048008508"
       height="1.096017">
      <feGaussianBlur
         inkscape:collect="always"
         stdDeviation="1.7710976"
         id="feGaussianBlur4822" />
    </filter>
  </defs>
  <sodipodi:namedview
     pagecolor="#ffffff"
     bordercolor="#666666"
     borderopacity="1"
     objecttolerance="10"
     gridtolerance="10"
     guidetolerance="10"
     inkscape:pageopacity="0"
     inkscape:pageshadow="2"
     inkscape:window-width="1366"
     inkscape:window-height="705"
     id="namedview4160"
     showgrid="false"
     inkscape:zoom="2.68"
     inkscape:cx="68.768047"
     inkscape:cy="31.883007"
     inkscape:window-x="-8"
     inkscape:window-y="-8"
     inkscape:window-maximized="1"
     inkscape:current-layer="svg4136" />
  <path
     fill="#2394BC"
     d="M50 0c27.614 0 50 22.386 50 50s-22.386 50-50 50-50-22.386-50-50 22.386-50 50-50z"
     id="path4138"
     style="fill:#d38d5f" />
  <path
     style="opacity:1;fill:#ffffff;fill-opacity:1;filter:url(#filter4820)"
     d="M 42.163569,93.765194 C 36.044561,92.644265 29.3537,89.817858 24.253122,86.199329 15.089619,79.698414 8.2810934,68.904933 6.3314324,57.788265 5.6149275,53.702866 5.6267813,45.963101 6.355426,42.121999 8.0612195,33.129787 12.303347,25.125432 18.842674,18.56015 27.192149,10.177535 37.960355,5.7502516 49.99939,5.7502516 c 21.285866,0 38.697799,14.1471774 43.555907,35.3891294 1.034455,4.52313 1.095936,12.804589 0.128806,17.350746 C 89.86592,76.438172 76.43389,89.971213 58.896002,93.53984 54.475416,94.439344 46.434808,94.547635 42.163569,93.765194 Z m 18.097015,-4.748059 c 2.29447,-0.636452 3.143948,-1.032221 3.071508,-1.431 -0.232944,-1.282329 -12.334306,-33.760187 -12.579165,-33.760187 -0.38544,0 -12.253825,34.519612 -11.966997,34.80644 0.131283,0.131284 1.6166,0.537198 3.300705,0.90203 4.489479,0.972575 13.753453,0.708896 18.173949,-0.517283 z M 32.526431,85.575519 c -0.261193,-0.680657 -18.131394,-49.69569 -18.62581,-51.087543 -0.205998,-0.579913 -0.503892,-0.915734 -0.661988,-0.746268 -0.601681,0.644958 -2.22439,5.807229 -2.816602,8.960363 -0.8623322,4.591351 -0.5799431,13.272761 0.568172,17.467161 2.659201,9.714835 8.887509,18.292955 17.170053,23.647959 3.511715,2.27047 4.754804,2.771082 4.366175,1.758328 z m 41.41453,-3.142407 C 85.399036,73.904829 91.65098,59.914709 90.157521,46.144944 89.651853,41.482697 88.462454,37.058494 86.705245,33.30356 l -1.222318,-2.61194 -0.251649,4.850746 c -0.138407,2.66791 -0.521974,5.873642 -0.852369,7.123847 -0.50534,1.912183 -12.780765,37.793086 -13.998422,40.917198 -0.622776,1.597847 0.244829,1.317545 3.560474,-1.150299 z M 44.666207,61.437967 49.027898,48.34103 46.037133,40.084113 c -1.644922,-4.541305 -3.15147,-8.450556 -3.347892,-8.687226 -0.196418,-0.23667 -1.363031,-0.50307 -2.592474,-0.591999 -2.522301,-0.182447 -3.162891,-0.601941 -2.846175,-1.863835 l 0.21895,-0.872369 11.861938,0.0069 11.86194,0.0069 0.12872,0.910495 c 0.184418,1.304475 -0.847354,1.885143 -3.349657,1.885143 -1.180007,0 -2.233723,0.142798 -2.341589,0.317329 -0.187108,0.302751 13.948709,42.708156 14.380765,43.140216 0.315157,0.315156 6.575977,-20.883082 7.042007,-23.843232 0.752004,-4.776608 -0.342511,-9.00113 -3.861306,-14.903554 -2.421574,-4.06195 -3.344552,-6.855622 -3.008119,-9.104976 0.443802,-2.967206 3.12653,-5.68041 5.616597,-5.68041 0.687936,0 1.250791,-0.163716 1.250791,-0.363814 0,-0.780386 -4.864362,-4.196227 -8.768657,-6.157506 -2.257462,-1.134011 -5.569522,-2.474722 -7.360134,-2.979358 -13.48778,-3.8011677 -28.199823,-0.208145 -38.348491,9.365594 -2.847214,2.685918 -5.970479,6.478857 -5.970479,7.250638 0,0.352291 1.604279,0.395577 7.063405,0.190583 6.868079,-0.257901 7.074683,-0.244163 7.471238,0.496807 0.664949,1.242468 -0.665679,2.271683 -2.936961,2.271683 -3.325167,0 -3.466886,-1.068844 1.995176,15.04763 2.724545,8.039101 5.999915,17.76487 7.2786,21.612818 1.278685,3.847947 2.438351,6.996268 2.577034,6.996268 0.138684,0 2.214914,-5.893623 4.613847,-13.096936 z"
     id="path4160"
     inkscape:connector-curvature="0" />
  <path
     style="opacity:1;fill:#000000;fill-opacity:1"
     d="M 39.015132,71.516452 C 36.250989,63.569888 26.357277,33.839539 26.127861,32.79053 c -0.334633,-1.530119 0.10631,-1.898582 2.281684,-1.906629 1.990165,-0.0074 3.507,-1.123082 2.892853,-2.12786 -0.371526,-0.607835 -1.118171,-0.686647 -7.369403,-0.777878 -3.825796,-0.05583 -6.955993,-0.250645 -6.955993,-0.432912 0,-0.659354 2.924083,-4.006678 6.052239,-6.928258 10.225743,-9.550463 25.306467,-13.035979 38.486757,-8.89521 4.999041,1.570517 12.540877,5.659559 14.533818,7.879961 0.766667,0.85417 0.622813,1.003966 -1.296389,1.349927 -1.683656,0.3035 -3.809634,2.524235 -4.444223,4.642302 -0.651254,2.173683 -0.165799,4.402887 1.772794,8.140692 3.256706,6.279257 3.891993,7.694027 4.472631,9.960489 1.111724,4.339481 0.471078,7.790339 -4.428078,23.851981 -1.051818,3.448335 -2.049165,6.132929 -2.216332,5.965761 -0.40881,-0.40881 -14.220982,-41.919085 -14.016303,-42.123762 0.08854,-0.08854 1.065288,-0.262886 2.170545,-0.387429 2.716836,-0.306139 3.315526,-0.668635 3.315526,-2.007487 l 0,-1.111444 -12.033582,0.09845 -12.033582,0.09845 -0.124875,0.882588 c -0.176939,1.250564 0.357946,1.62337 2.805722,1.95554 1.300173,0.176437 2.328384,0.536563 2.602572,0.911537 0.391516,0.53543 3.397141,8.420879 5.586063,14.655393 l 0.697682,1.987148 -4.104477,12.150056 c -2.257463,6.682533 -4.289847,12.405757 -4.51641,12.718279 -0.333655,0.46025 -0.57004,0.113687 -1.243968,-1.823768 z"
     id="path4172"
     inkscape:connector-curvature="0" />
  <path
     style="opacity:1;fill:#000000;fill-opacity:1"
     d="M 41.648466,89.257549 C 40.33904,88.973455 39.188176,88.6615 39.090991,88.564315 38.800575,88.273898 49.495489,56.67259 50.478913,54.915307 c 0.275091,-0.491559 0.466206,-0.295897 0.993016,1.016637 1.864694,4.645837 11.77373,31.443474 11.77373,31.840445 0,0.283997 -3.648107,1.30602 -5.970149,1.672547 -3.442131,0.543329 -12.774884,0.431418 -15.627044,-0.187387 z"
     id="path4174"
     inkscape:connector-curvature="0" />
  <path
     style="opacity:1;fill:#000000;fill-opacity:1"
     d="m 70.520828,83.583411 c 0.637683,-1.56859 9.280565,-26.755855 11.683572,-34.048508 2.352642,-7.1398 2.686268,-8.514994 3.032541,-12.5 0.213993,-2.462686 0.392451,-4.729477 0.396573,-5.037313 0.01056,-0.788214 1.591034,2.70228 2.534302,5.597015 2.453258,7.52865 2.597719,16.189132 0.395225,23.69403 -2.346731,7.99638 -7.969696,15.966962 -14.876013,21.086828 -2.635952,1.954112 -3.62256,2.330515 -3.1662,1.207948 z"
     id="path4176"
     inkscape:connector-curvature="0" />
  <path
     style="opacity:1;fill:#000000;fill-opacity:1"
     d="M 29.455051,84.394978 C 21.337327,79.510276 15.006514,71.593329 11.880908,62.417781 10.615166,58.702059 10.242384,55.837992 10.23734,49.790304 c -0.0048,-5.699036 0.283254,-7.708019 1.775118,-12.382266 0.80862,-2.533534 1.606335,-4.259569 1.606335,-3.475663 0,0.120102 4.09153,11.445661 9.09229,25.16791 10.243625,28.108846 9.727349,26.628648 9.287769,26.628648 -0.17982,0 -1.32453,-0.60028 -2.543801,-1.333955 z"
     id="path4178"
     inkscape:connector-curvature="0" />
</svg>
