<?xml version="1.0" encoding="UTF-8" standalone="no"?>
<svg
   xmlns:dc="http://purl.org/dc/elements/1.1/"
   xmlns:cc="http://creativecommons.org/ns#"
   xmlns:rdf="http://www.w3.org/1999/02/22-rdf-syntax-ns#"
   xmlns:svg="http://www.w3.org/2000/svg"
   xmlns="http://www.w3.org/2000/svg"
   xmlns:sodipodi="http://sodipodi.sourceforge.net/DTD/sodipodi-0.dtd"
   xmlns:inkscape="http://www.inkscape.org/namespaces/inkscape"
   width="100"
   height="100"
   id="svg2"
   version="1.1"
   inkscape:version="0.91 r13725"
   sodipodi:docname="book.svg">
  <metadata
     id="metadata26">
    <rdf:RDF>
      <cc:Work
         rdf:about="">
        <dc:format>image/svg+xml</dc:format>
        <dc:type
           rdf:resource="http://purl.org/dc/dcmitype/StillImage" />
      </cc:Work>
    </rdf:RDF>
  </metadata>
  <defs
     id="defs24" />
  <sodipodi:namedview
     pagecolor="#ffffff"
     bordercolor="#666666"
     borderopacity="1"
     objecttolerance="10"
     gridtolerance="10"
     guidetolerance="10"
     inkscape:pageopacity="0"
     inkscape:pageshadow="2"
     inkscape:window-width="1366"
     inkscape:window-height="705"
     id="namedview22"
     showgrid="false"
     inkscape:zoom="2.36"
     inkscape:cx="27.213547"
     inkscape:cy="49.902505"
     inkscape:window-x="-8"
     inkscape:window-y="-8"
     inkscape:window-maximized="1"
     inkscape:current-layer="svg2" />
  <path
     fill-rule="evenodd"
     clip-rule="evenodd"
     fill="#C0392B"
     d="M6 100h88c3.313 0 6-2.687 6-6v-88c0-3.314-2.687-6-6-6h-88c-3.313 0-6 2.686-6 6v88c0 3.313 2.687 6 6 6z"
     id="path4"
     style="fill:#1a1a1a" />
  <path
     fill-rule="evenodd"
     clip-rule="evenodd"
     fill="#E74C3C"
     d="M100 30h-.025c-.253-2.802-2.606-5-5.475-5h-88.25c-3.313 0-6.25-2.686-6.25-6v-13c0-3.313 2.687-6 6-6h88c3.313 0 6 2.687 6 6.001v23.999z"
     id="path6"
     style="fill:#666666" />
  <path
     opacity=".15"
     fill-rule="evenodd"
     clip-rule="evenodd"
     d="M5 100h2v-100h-2v100z"
     id="path8" />
  <path
     opacity=".15"
     fill-rule="evenodd"
     clip-rule="evenodd"
     fill="#fff"
     d="M7 100h2v-100h-2v100z"
     id="path10" />
  <path
     fill-rule="evenodd"
     clip-rule="evenodd"
     fill="#fff"
     d="M100 10.001c0-2.762-2.238-5-5-5h-88c-1.104 0-2 .896-2 2v11c0 1.104.896 2 2 2h87c3.313 0 6 2.687 6 6v-15h-.101c.066-.323.101-.658.101-1z"
     id="path12" />
  <path
     fill-rule="evenodd"
     clip-rule="evenodd"
     fill="#95A5A6"
     d="M100 15.423v-3.921s.183-4-5-4h-90v2h89c3.184 0 5.781 2.482 5.98 5.616-.107-1-.789-3.615-4.98-3.615h-90v2h89c3.184 0 5.781 2.482 5.98 5.616-.107-1.001-.789-3.616-4.98-3.616h-90v2h89c3.313 0 6 2.687 6 6v-8.08z"
     opacity=".2"
     id="path14" />
  <path
     fill-rule="evenodd"
     clip-rule="evenodd"
     fill="#2980B9"
     d="M80 100h10v-75h-10v75z"
     id="path16"
     style="fill:#a05a2c" />
  <path
     fill-rule="evenodd"
     clip-rule="evenodd"
     fill="#3498DB"
     d="M80 25.007h10v-25.007h-10v25.007z"
     id="path18"
     style="fill:#d38d5f" />
  <path
     d="M82 100h2v-100h-2v100zm4-100v100h2v-100h-2z"
     id="path20"
     clip-rule="evenodd"
     fill-rule="evenodd"
     opacity=".1" />
</svg>
