<?xml version="1.0" encoding="UTF-8" standalone="no"?>
<svg
   xmlns:osb="http://www.openswatchbook.org/uri/2009/osb"
   xmlns:dc="http://purl.org/dc/elements/1.1/"
   xmlns:cc="http://creativecommons.org/ns#"
   xmlns:rdf="http://www.w3.org/1999/02/22-rdf-syntax-ns#"
   xmlns:svg="http://www.w3.org/2000/svg"
   xmlns="http://www.w3.org/2000/svg"
   xmlns:sodipodi="http://sodipodi.sourceforge.net/DTD/sodipodi-0.dtd"
   xmlns:inkscape="http://www.inkscape.org/namespaces/inkscape"
   width="100"
   height="100"
   viewBox="0 0 100 100"
   id="svg4136"
   version="1.1"
   inkscape:version="0.91 r13725"
   sodipodi:docname="news.svg">
  <metadata
     id="metadata4164">
    <rdf:RDF>
      <cc:Work
         rdf:about="">
        <dc:format>image/svg+xml</dc:format>
        <dc:type
           rdf:resource="http://purl.org/dc/dcmitype/StillImage" />
        <dc:title></dc:title>
      </cc:Work>
    </rdf:RDF>
  </metadata>
  <defs
     id="defs4162">
    <linearGradient
       id="linearGradient7260"
       osb:paint="solid">
      <stop
         style="stop-color:#5a5dc9;stop-opacity:1;"
         offset="0"
         id="stop7262" />
    </linearGradient>
    <marker
       inkscape:stockid="Arrow1Lend"
       orient="auto"
       refY="0.0"
       refX="0.0"
       id="Arrow1Lend"
       style="overflow:visible;"
       inkscape:isstock="true">
      <path
         id="path7003"
         d="M 0.0,0.0 L 5.0,-5.0 L -12.5,0.0 L 5.0,5.0 L 0.0,0.0 z "
         style="fill-rule:evenodd;stroke:#000000;stroke-width:1.0pt;"
         transform="scale(0.8) rotate(180) translate(12.5,0)" />
    </marker>
    <marker
       inkscape:stockid="Arrow1Lstart"
       orient="auto"
       refY="0.0"
       refX="0.0"
       id="Arrow1Lstart"
       style="overflow:visible"
       inkscape:isstock="true">
      <path
         id="path7000"
         d="M 0.0,0.0 L 5.0,-5.0 L -12.5,0.0 L 5.0,5.0 L 0.0,0.0 z "
         style="fill-rule:evenodd;stroke:#000000;stroke-width:1.0pt"
         transform="scale(0.8) translate(12.5,0)" />
    </marker>
    <filter
       inkscape:collect="always"
       style="color-interpolation-filters:sRGB"
       id="filter4820"
       x="-0.049979801"
       width="1.0999596"
       y="-0.046171071"
       height="1.0923421">
      <feGaussianBlur
         inkscape:collect="always"
         stdDeviation="1.3404466"
         id="feGaussianBlur4822" />
    </filter>
  </defs>
  <sodipodi:namedview
     pagecolor="#ffffff"
     bordercolor="#666666"
     borderopacity="1"
     objecttolerance="10"
     gridtolerance="10"
     guidetolerance="10"
     inkscape:pageopacity="0"
     inkscape:pageshadow="2"
     inkscape:window-width="1366"
     inkscape:window-height="705"
     id="namedview4160"
     showgrid="false"
     inkscape:zoom="3.7900924"
     inkscape:cx="49.38837"
     inkscape:cy="41.686591"
     inkscape:window-x="-8"
     inkscape:window-y="-8"
     inkscape:window-maximized="1"
     inkscape:current-layer="svg4136" />
  <path
     inkscape:connector-curvature="0"
     id="path4752"
     d="m 18.899311,84.456365 c -1.15737,-0.863869 -1.082032,1.265463 -1.082032,-30.582045 0,-27.903224 0.01343,-29.059055 0.341183,-29.355664 0.443449,-0.401315 0.832591,-0.390939 1.215723,0.03242 0.284367,0.314223 0.308766,2.511703 0.308766,27.808743 0,26.837787 0.0083,27.485877 0.363899,28.266369 0.434874,0.954606 0.69466,1.192806 1.470039,1.347881 0.410456,0.08209 0.613707,0.04056 0.679334,-0.138817 0.0515,-0.140777 0.115765,-14.797019 0.142799,-32.569429 0.03886,-25.549162 0.09797,-32.362285 0.282362,-32.546642 0.128265,-0.128243 0.233209,-0.34582 0.233209,-0.483506 0,-0.137687 0.172716,-0.435728 0.383813,-0.662314 l 0.383813,-0.411975 28.638037,0 28.638039,0 0.363101,0.466418 c 0.983347,1.26315 0.921554,-1.039843 0.921554,34.346011 0,21.662851 -0.06333,32.835289 -0.186567,32.911452 -0.102612,0.06342 -0.18936,0.257272 -0.192774,0.430787 -0.0074,0.373254 -0.50031,0.968442 -1.072553,1.294959 -0.322496,0.184013 -6.834209,0.231962 -30.868335,0.227298 -30.242184,-0.0059 -30.463217,-0.0086 -30.96341,-0.381942 z m 21.631592,-5.920002 c 0.568937,-0.681673 0.547638,-1.606175 -0.05521,-2.39655 l -0.475912,-0.623953 -6.193864,0.0062 c -5.981156,0.006 -6.209774,0.01944 -6.657172,0.391648 -0.39477,0.328421 -0.463308,0.543832 -0.463308,1.456125 0,1.117391 0.253353,1.587488 0.92553,1.717317 0.190112,0.03672 3.08063,0.04073 6.423373,0.0089 l 6.077713,-0.05787 0.418849,-0.501845 z m 18.28451,0.298383 c 0.230877,-0.115663 0.419776,-0.323181 0.419776,-0.461153 0,-0.13797 0.104151,-0.417627 0.231446,-0.621459 0.184214,-0.294976 0.184214,-0.44623 0,-0.741205 -0.127295,-0.203833 -0.231446,-0.46323 -0.231446,-0.576439 0,-0.113209 -0.188899,-0.363422 -0.419776,-0.556026 -0.391592,-0.326677 -0.832758,-0.350608 -6.570553,-0.356397 l -6.150778,-0.0062 -0.445205,0.513059 c -0.895753,1.032278 -0.893153,1.781495 0.0093,2.684092 l 0.440847,0.440908 6.148298,-0.05444 c 4.083821,-0.03616 6.289252,-0.125052 6.568075,-0.264735 l 6e-6,0 z m 18.721774,-0.113017 c 0.55477,-0.475011 0.4953,-2.22695 -0.09458,-2.786093 -0.440884,-0.417915 -0.470194,-0.419776 -6.605559,-0.419776 l -6.162711,0 -0.574054,0.574052 c -0.4235,0.423502 -0.574052,0.74622 -0.574052,1.230528 0,0.789196 0.595738,1.692765 1.169865,1.774362 0.228776,0.03252 3.131799,0.03021 6.451163,-0.0051 5.244645,-0.05582 6.081671,-0.104021 6.389925,-0.367955 l 0,-6e-6 z M 40.454349,72.532401 c 0.363122,-0.407541 0.497258,-0.759831 0.497258,-1.305971 0,-0.411335 -0.08396,-0.747884 -0.186567,-0.747884 -0.102612,0 -0.186568,-0.09569 -0.186568,-0.212642 0,-0.651888 -0.545876,-0.708225 -6.920711,-0.714261 -6.140841,-0.0058 -6.274921,0.002 -6.623134,0.387177 -0.490435,0.542463 -0.477768,2.14928 0.02154,2.732429 0.358904,0.41917 0.359967,0.419237 6.629943,0.419237 l 6.270981,0 0.497257,-0.558085 z m 18.374582,0.231593 c 0.618068,-0.622036 0.878288,-1.337978 0.630513,-1.734728 -0.123341,-0.1975 -0.224255,-0.467503 -0.224255,-0.600009 0,-0.132506 -0.16887,-0.385511 -0.375267,-0.562233 -0.338933,-0.290202 -0.981506,-0.321314 -6.636461,-0.321314 -6.873602,0 -6.557608,-0.05221 -7.067367,1.167812 -0.227633,0.544804 -0.221814,0.700455 0.04734,1.265866 0.168788,0.354574 0.43556,0.746955 0.592829,0.871957 0.21149,0.168097 1.903199,0.228819 6.497102,0.233209 5.672164,0.0054 6.239312,-0.0224 6.535569,-0.32056 z m 18.613679,-0.09328 c 0.360984,-0.342175 0.443444,-0.610423 0.446071,-1.451074 0.0054,-1.74062 0.286478,-1.673926 -7.053556,-1.673926 l -6.306246,0 -0.501323,0.523269 c -0.332608,0.347168 -0.501322,0.726099 -0.501322,1.125966 0,0.571954 0.420904,1.455222 0.835242,1.75276 0.104983,0.07539 2.991543,0.138354 6.41458,0.139925 6.200482,0.0028 6.225357,0.0013 6.666554,-0.41692 z M 40.25198,66.674063 c 0.179571,-0.136313 0.326492,-0.343532 0.326492,-0.460483 0,-0.116953 0.08396,-0.212642 0.186568,-0.212642 0.102612,0 0.186567,-0.377798 0.186567,-0.839552 0,-0.461754 -0.08396,-0.839552 -0.186567,-0.839552 -0.102612,0 -0.186568,-0.09569 -0.186568,-0.212642 0,-0.651735 -0.546362,-0.708226 -6.908164,-0.714261 l -6.255178,-0.0059 -0.367956,0.419776 c -0.504968,0.576084 -0.512333,2.180021 -0.01255,2.732278 0.348096,0.384642 0.484365,0.392601 6.623135,0.386789 4.916065,-0.0047 6.338134,-0.05938 6.594218,-0.253778 z m 18.607942,-0.0616 c 0.206397,-0.176722 0.375267,-0.429728 0.375267,-0.562234 0,-0.132505 0.100914,-0.402509 0.224255,-0.600009 0.177681,-0.284513 0.169666,-0.468034 -0.03859,-0.883662 C 58.792203,63.311951 59.25878,63.389 52.289966,63.389 c -6.872933,0 -6.530535,-0.05369 -7.085987,1.111099 -0.27302,0.572528 -0.277397,0.71655 -0.03911,1.286849 0.484523,1.159625 0.327107,1.134397 7.118567,1.140895 5.603486,0.0054 6.237398,-0.02504 6.576493,-0.31538 z m 18.600183,-0.08434 c 0.599567,-0.563265 0.614227,-2.081336 0.02614,-2.707321 l -0.405656,-0.4318 -6.301267,0 -6.301269,0 -0.475912,0.623953 c -0.639784,0.838799 -0.630519,1.712913 0.02541,2.397554 l 0.501323,0.523269 6.249713,0 c 6.159951,0 6.255914,-0.0058 6.681513,-0.405655 z M 40.377554,60.389568 c 0.671349,-0.671348 0.757262,-1.501184 0.24756,-2.391162 -0.442826,-0.773207 -0.736724,-0.801793 -7.522936,-0.731733 -6.65588,0.06872 -6.41674,3.2e-5 -6.41674,1.842968 0,0.912293 0.06854,1.127704 0.463308,1.456125 0.447062,0.371924 0.677065,0.385659 6.559032,0.391648 l 6.095722,0.0062 0.574054,-0.574053 z m 18.437859,0.211448 c 0.230877,-0.192604 0.419776,-0.442817 0.419776,-0.556026 0,-0.113209 0.104151,-0.372606 0.231446,-0.576438 0.184214,-0.294976 0.184214,-0.44623 0,-0.741206 -0.127295,-0.203832 -0.231446,-0.461694 -0.231446,-0.573028 0,-0.111333 -0.140812,-0.343348 -0.312914,-0.515591 -0.278015,-0.278239 -1.00431,-0.319399 -6.51212,-0.36906 l -6.199203,-0.05589 -0.496802,0.496802 c -0.740661,0.74066 -0.89881,1.301134 -0.554838,1.966304 0.71131,1.375522 0.224657,1.287433 7.074429,1.280534 5.748672,-0.0058 6.190047,-0.02969 6.581672,-0.356398 z m 18.601595,-0.112293 c 0.655823,-0.655824 0.687087,-2.241255 0.05512,-2.795207 -0.400101,-0.350709 -0.715666,-0.367955 -6.732571,-0.367955 l -6.312796,0 -0.450264,0.523463 c -0.66733,0.775817 -0.61746,1.799294 0.123788,2.540544 l 0.574054,0.574053 6.133884,0 6.133885,0 0.474899,-0.474898 z M 40.406256,54.261554 c 0.670485,-0.670484 0.734103,-1.650627 0.159513,-2.457566 l -0.38584,-0.54186 -6.495888,0 -6.495889,0 -0.32115,0.676773 c -0.412086,0.868408 -0.253342,2.079416 0.332608,2.537362 0.371426,0.290287 1.02153,0.322757 6.53687,0.326492 l 6.124427,0.0041 0.545349,-0.54535 z m 19.011084,0.180468 c 0.129039,-0.241114 0.178729,-2.883226 0.146489,-7.789179 l -0.04879,-7.424297 -7.067704,-0.04891 c -5.061636,-0.03503 -7.140099,0.01118 -7.322761,0.162768 -0.207576,0.172274 -0.255058,1.542293 -0.255058,7.359526 0,4.192776 0.07522,7.345694 0.18195,7.626409 l 0.181949,0.478563 6.994323,0 c 6.750655,0 7.001125,-0.01271 7.189601,-0.364882 z m 18.429972,-7.519799 0.04869,-7.791399 -7.138242,0.04886 -7.138243,0.04886 -0.0488,7.555726 c -0.02684,4.155647 -0.0081,7.661791 0.04165,7.791427 0.07112,0.185342 1.596311,0.225256 7.138351,0.186812 l 7.047903,-0.04889 0.04869,-7.791398 z M 40.158696,48.42468 c 0.230877,-0.115873 0.419776,-0.322425 0.419776,-0.459003 0,-0.136579 0.08396,-0.248325 0.186568,-0.248325 0.102612,0 0.186567,-0.365539 0.186567,-0.81231 0,-0.60366 -0.117515,-0.93911 -0.45751,-1.30597 l -0.457509,-0.49366 -6.230362,0 c -5.667643,0 -6.263947,0.02949 -6.60221,0.326492 -0.816776,0.71715 -0.743842,2.47403 0.12464,3.002424 0.450234,0.273927 1.186048,0.302985 6.459191,0.255088 3.945138,-0.03583 6.092568,-0.12507 6.370849,-0.264736 z m 0.218858,-6.318694 c 0.65882,-0.65882 0.750778,-1.43974 0.280538,-2.382358 l -0.293515,-0.588365 -6.588213,0 -6.588212,0 -0.311897,0.657274 c -0.220489,0.464647 -0.276902,0.890632 -0.19249,1.453533 0.208919,1.393176 0.229837,1.39734 7.117296,1.416911 l 6.002439,0.01706 0.574054,-0.574053 z m 37.47029,-14.98208 c 0.03508,-4.371593 -0.0117,-6.207896 -0.162769,-6.389925 -0.177522,-0.2139 -4.319629,-0.255435 -25.473618,-0.255435 l -25.261623,0 -0.181949,0.478564 c -0.196153,0.51592 -0.253781,11.267957 -0.06419,11.975456 l 0.112669,0.420439 25.491127,-0.0473 25.491127,-0.0473 0.04922,-6.134491 z"
     style="opacity:1;fill:#000000;fill-opacity:1;stroke:none;stroke-width:0.18656716;stroke-opacity:1;" />
  <path
     fill="#2394BC"
     d="M50 0c27.614 0 50 22.386 50 50s-22.386 50-50 50-50-22.386-50-50 22.386-50 50-50z"
     id="path4138"
     style="fill:#d38d5f" />
  <g
     id="g4196"
     transform="matrix(1.0248985,0,0,0.9995802,-0.58741744,0.02047988)" />
  <flowRoot
     xml:space="preserve"
     id="flowRoot4203"
     style="fill:black;stroke:none;stroke-opacity:1;stroke-width:1px;stroke-linejoin:miter;stroke-linecap:butt;fill-opacity:1;font-family:sans-serif;font-style:normal;font-weight:normal;font-size:5px;line-height:125%;letter-spacing:0px;word-spacing:0px;"><flowRegion
       id="flowRegion4205"><rect
         id="rect4207"
         width="28.731342"
         height="42.164181"
         x="-23.880596"
         y="30.223881"
         style="font-size:5px;" /></flowRegion><flowPara
       id="flowPara4209"></flowPara></flowRoot>  <text
     xml:space="preserve"
     style="font-style:normal;font-weight:normal;font-size:40px;line-height:125%;font-family:sans-serif;letter-spacing:0px;word-spacing:0px;fill:#000000;fill-opacity:1;stroke:none;stroke-width:1px;stroke-linecap:butt;stroke-linejoin:miter;stroke-opacity:1"
     x="-19.216417"
     y="33.768658"
     id="text4211"
     sodipodi:linespacing="125%"><tspan
       sodipodi:role="line"
       id="tspan4213"
       x="-19.216417"
       y="33.768658" /></text>
  <flowRoot
     xml:space="preserve"
     id="flowRoot4215"
     style="fill:black;stroke:none;stroke-opacity:1;stroke-width:1px;stroke-linejoin:miter;stroke-linecap:butt;fill-opacity:1;font-family:sans-serif;font-style:normal;font-weight:normal;font-size:40px;line-height:125%;letter-spacing:0px;word-spacing:0px"><flowRegion
       id="flowRegion4217"><rect
         id="rect4219"
         width="27.61194"
         height="42.537312"
         x="-25.932837"
         y="28.544777" /></flowRegion><flowPara
       id="flowPara4221"></flowPara></flowRoot>  <rect
     y="19.792942"
     x="20.006334"
     height="63.318863"
     width="60.992264"
     id="rect4722"
     style="opacity:1;fill:#000000;fill-opacity:1;stroke:#000000;stroke-width:0.60413218;stroke-miterlimit:4;stroke-dasharray:none;stroke-opacity:1"
     ry="1.8655499" />
  <path
     inkscape:connector-curvature="0"
     id="path4802"
     d="m 18.89931,83.928669 c -1.15737,-0.86387 -1.082032,1.26546 -1.082032,-30.58204 0,-27.903224 0.01343,-29.059055 0.341183,-29.355664 0.443449,-0.401315 0.832591,-0.390939 1.215723,0.03242 0.284367,0.314223 0.308766,2.511703 0.308766,27.808743 0,26.837791 0.0083,27.485881 0.363899,28.266371 0.434874,0.95461 0.69466,1.19281 1.470039,1.34788 0.410456,0.0821 0.613707,0.0406 0.679334,-0.13882 0.0515,-0.14077 0.115765,-14.79702 0.142799,-32.569427 0.03886,-25.549162 0.09797,-32.362285 0.282362,-32.546642 0.128265,-0.128243 0.233209,-0.34582 0.233209,-0.483506 0,-0.137687 0.172716,-0.435728 0.383813,-0.662314 l 0.383813,-0.411975 28.638037,0 28.63804,0 0.363101,0.466418 c 0.98335,1.26315 0.92155,-1.039843 0.92155,34.346011 0,21.662855 -0.0633,32.835295 -0.18656,32.911455 -0.10262,0.0634 -0.18936,0.25727 -0.19278,0.43079 -0.007,0.37324 -0.50031,0.96843 -1.072551,1.29495 -0.3225,0.18401 -6.834209,0.23196 -30.86834,0.22729 -30.242179,-0.006 -30.463212,-0.009 -30.963405,-0.38194 z m 21.631595,-5.91999 c 0.56893,-0.68168 0.54763,-1.60618 -0.0552,-2.39655 l -0.475915,-0.62396 -6.193864,0.006 c -5.981156,0.006 -6.209774,0.0194 -6.657172,0.39165 -0.39477,0.32842 -0.463308,0.54383 -0.463308,1.45613 0,1.11739 0.253353,1.58748 0.92553,1.71731 0.190112,0.0367 3.08063,0.0407 6.423373,0.009 l 6.077713,-0.0579 0.418853,-0.50184 z m 18.284511,0.29838 c 0.23087,-0.11566 0.41977,-0.32318 0.41977,-0.46115 0,-0.13797 0.10415,-0.41763 0.23145,-0.62146 0.18421,-0.29498 0.18421,-0.44623 0,-0.74121 -0.1273,-0.20383 -0.23145,-0.46323 -0.23145,-0.57644 0,-0.11321 -0.1889,-0.36342 -0.41977,-0.55602 -0.3916,-0.32668 -0.83276,-0.35061 -6.570561,-0.3564 l -6.15077,-0.006 -0.44521,0.51306 c -0.89575,1.03228 -0.89315,1.78149 0.009,2.68409 l 0.44085,0.44091 6.1483,-0.0544 c 4.083821,-0.0362 6.289251,-0.12505 6.568071,-0.26474 l 1e-5,0 z m 18.721769,-0.11302 c 0.55477,-0.47501 0.4953,-2.22695 -0.0946,-2.78609 -0.44088,-0.41792 -0.47019,-0.41978 -6.605559,-0.41978 l -6.162711,0 -0.57405,0.57405 c -0.4235,0.42351 -0.57406,0.74622 -0.57406,1.23053 0,0.7892 0.59574,1.69277 1.16987,1.77436 0.22878,0.0325 3.131801,0.0302 6.451161,-0.005 5.244649,-0.0558 6.081669,-0.10402 6.389929,-0.36795 l 0,-1e-5 z m -37.08284,-6.18933 c 0.36312,-0.40754 0.49726,-0.75983 0.49726,-1.30597 0,-0.41134 -0.084,-0.74788 -0.18657,-0.74788 -0.10261,0 -0.18656,-0.0957 -0.18656,-0.21265 0,-0.65188 -0.54588,-0.70822 -6.920715,-0.71426 -6.140841,-0.006 -6.274921,0.002 -6.623134,0.38718 -0.490435,0.54246 -0.477768,2.14928 0.02154,2.73243 0.358904,0.41917 0.359967,0.41924 6.629943,0.41924 l 6.270981,0 0.497255,-0.55809 z m 18.374581,0.23159 c 0.61807,-0.62203 0.87829,-1.33797 0.63052,-1.73472 -0.12334,-0.1975 -0.22426,-0.46751 -0.22426,-0.60001 0,-0.13251 -0.16887,-0.38551 -0.37526,-0.56224 -0.33894,-0.2902 -0.98151,-0.32131 -6.636471,-0.32131 -6.8736,0 -6.5576,-0.0522 -7.06736,1.16781 -0.22764,0.54481 -0.22182,0.70046 0.0473,1.26587 0.16879,0.35457 0.43556,0.74695 0.59283,0.87195 0.21149,0.1681 1.9032,0.22882 6.4971,0.23321 5.672161,0.005 6.239311,-0.0224 6.535571,-0.32056 z m 18.613679,-0.0933 c 0.36099,-0.34217 0.44345,-0.61042 0.44607,-1.45107 0.005,-1.74062 0.28648,-1.67393 -7.053549,-1.67393 l -6.306251,0 -0.50132,0.52327 c -0.33261,0.34717 -0.50132,0.7261 -0.50132,1.12597 0,0.57195 0.4209,1.45522 0.83524,1.75276 0.10498,0.0754 2.991541,0.13835 6.414581,0.13992 6.200479,0.003 6.225359,0.001 6.666549,-0.41692 z m -37.190626,-5.99665 c 0.179566,-0.13631 0.326496,-0.34353 0.326496,-0.46048 0,-0.11695 0.084,-0.21264 0.18656,-0.21264 0.10262,0 0.18657,-0.3778 0.18657,-0.83955 0,-0.46176 -0.084,-0.83956 -0.18657,-0.83956 -0.10261,0 -0.18656,-0.0957 -0.18656,-0.21264 0,-0.65173 -0.546366,-0.70822 -6.908168,-0.71426 l -6.255178,-0.006 -0.367956,0.41978 c -0.504968,0.57608 -0.512333,2.18002 -0.01255,2.73227 0.348096,0.38465 0.484365,0.39261 6.623135,0.38679 4.916065,-0.005 6.338134,-0.0594 6.594218,-0.25377 z m 18.607947,-0.0616 c 0.20639,-0.17672 0.37526,-0.42973 0.37526,-0.56223 0,-0.13251 0.10092,-0.40251 0.22426,-0.60001 0.17768,-0.28451 0.16966,-0.46803 -0.0386,-0.88366 -0.62865,-1.25461 -0.16208,-1.17756 -7.130891,-1.17756 -6.87293,0 -6.53054,-0.0537 -7.08599,1.1111 -0.27302,0.57253 -0.27739,0.71655 -0.0391,1.28685 0.48453,1.15962 0.32711,1.13439 7.11857,1.14089 5.603491,0.005 6.237401,-0.025 6.576491,-0.31538 z m 18.600179,-0.0843 c 0.59957,-0.56326 0.61423,-2.08133 0.0261,-2.70732 l -0.40566,-0.4318 -6.301259,0 -6.301271,0 -0.47592,0.62395 c -0.639779,0.8388 -0.630509,1.71292 0.0254,2.39756 l 0.50133,0.52327 6.249711,0 c 6.159949,0 6.255909,-0.006 6.681509,-0.40566 z m -37.08255,-6.13855 c 0.67135,-0.67135 0.75726,-1.50119 0.24756,-2.39116 -0.442828,-0.77321 -0.736726,-0.8018 -7.522938,-0.73174 -6.65588,0.0687 -6.41674,3e-5 -6.41674,1.84297 0,0.91229 0.06854,1.1277 0.463308,1.45613 0.447062,0.37192 0.677065,0.38565 6.559032,0.39164 l 6.095722,0.006 0.574056,-0.57405 z m 18.437861,0.21145 c 0.23087,-0.19261 0.41977,-0.44282 0.41977,-0.55603 0,-0.11321 0.10415,-0.37261 0.23145,-0.57644 0.18421,-0.29497 0.18421,-0.44623 0,-0.7412 -0.1273,-0.20384 -0.23145,-0.4617 -0.23145,-0.57303 0,-0.11134 -0.14081,-0.34335 -0.31291,-0.51559 -0.27802,-0.27824 -1.00431,-0.3194 -6.512121,-0.36906 l -6.1992,-0.0559 -0.49681,0.4968 c -0.74066,0.74066 -0.89881,1.30113 -0.55483,1.9663 0.71131,1.37552 0.22465,1.28744 7.07442,1.28054 5.748681,-0.006 6.190051,-0.0297 6.581681,-0.3564 z m 18.601589,-0.1123 c 0.65582,-0.65582 0.68709,-2.24125 0.0551,-2.7952 -0.4001,-0.35071 -0.71566,-0.36796 -6.732569,-0.36796 l -6.312801,0 -0.45026,0.52346 c -0.667329,0.77582 -0.617459,1.7993 0.12379,2.54055 l 0.57405,0.57405 6.133891,0 6.133879,0 0.4749,-0.4749 z m -37.01075,-6.227166 c 0.67048,-0.670484 0.7341,-1.650627 0.15951,-2.457566 l -0.385837,-0.54186 -6.495888,0 -6.495889,0 -0.32115,0.676773 c -0.412086,0.868408 -0.253342,2.079416 0.332608,2.537362 0.371426,0.290287 1.02153,0.322757 6.53687,0.326487 l 6.124427,0.004 0.545349,-0.545345 z m 19.011081,0.180468 c 0.12904,-0.241114 0.17873,-2.883226 0.14649,-7.789179 l -0.0488,-7.424297 -7.067701,-0.04891 c -5.06164,-0.03503 -7.1401,0.01118 -7.32276,0.162768 -0.20758,0.172274 -0.25506,1.542293 -0.25506,7.359526 0,4.192776 0.0752,7.345694 0.18195,7.626409 l 0.18195,0.478561 6.99432,0 c 6.750661,0 7.001131,-0.0127 7.189601,-0.36488 z m 18.429979,-7.519799 0.0487,-7.791399 -7.138249,0.04886 -7.138241,0.04886 -0.0488,7.555726 c -0.0268,4.155647 -0.008,7.661791 0.0416,7.791427 0.0711,0.185343 1.59631,0.225253 7.138351,0.186813 l 7.047899,-0.0489 0.0487,-7.791399 z m -37.68862,1.502457 c 0.23088,-0.115873 0.41978,-0.322425 0.41978,-0.459003 0,-0.136579 0.084,-0.248325 0.18656,-0.248325 0.10262,0 0.18657,-0.365539 0.18657,-0.81231 0,-0.60366 -0.11751,-0.93911 -0.45751,-1.30597 l -0.457508,-0.49366 -6.230362,0 c -5.667643,0 -6.263947,0.02949 -6.60221,0.326492 -0.816776,0.71715 -0.743842,2.47403 0.12464,3.002424 0.450234,0.273927 1.186048,0.302985 6.459191,0.255088 3.945138,-0.03583 6.092568,-0.12507 6.370849,-0.264736 z m 0.21886,-6.318694 c 0.65882,-0.65882 0.75078,-1.43974 0.28054,-2.382358 l -0.293519,-0.588365 -6.588213,0 -6.588212,0 -0.311897,0.657274 c -0.220489,0.464647 -0.276902,0.890632 -0.19249,1.453533 0.208919,1.393176 0.229837,1.39734 7.117296,1.416911 l 6.002439,0.01706 0.574056,-0.574053 z m 37.47029,-14.98208 c 0.0351,-4.371593 -0.0117,-6.207896 -0.16277,-6.389925 -0.17752,-0.2139 -4.319629,-0.255435 -25.47362,-0.255435 l -25.261622,0 -0.181949,0.478564 c -0.196153,0.51592 -0.253781,11.267957 -0.06419,11.975456 l 0.112669,0.420439 25.491122,-0.0473 25.49113,-0.0473 0.0492,-6.134491 z"
     style="opacity:1;fill:#000000;fill-opacity:1;stroke:#000000;stroke-width:1.3;stroke-opacity:1;stroke-miterlimit:4;stroke-dasharray:none;filter:url(#filter4820)" />
  <path
     style="opacity:1;fill:#ffffff;fill-opacity:1;stroke:none;stroke-width:0.18656716;stroke-opacity:1"
     d="m 19.163156,83.664823 c -1.15737,-0.86387 -1.082032,1.26546 -1.082032,-30.58204 0,-27.903224 0.01343,-29.059055 0.341183,-29.355664 0.443449,-0.401315 0.832591,-0.390939 1.215723,0.03242 0.284367,0.314223 0.308766,2.511703 0.308766,27.808743 0,26.837791 0.0083,27.485881 0.363899,28.266371 0.434874,0.95461 0.69466,1.19281 1.470039,1.34788 0.410456,0.0821 0.613707,0.0406 0.679334,-0.13882 0.0515,-0.14077 0.115765,-14.79702 0.142799,-32.569427 0.03886,-25.549162 0.09797,-32.362285 0.282362,-32.546642 0.128265,-0.128243 0.233209,-0.34582 0.233209,-0.483506 0,-0.137687 0.172716,-0.435728 0.383813,-0.662314 l 0.383813,-0.411975 28.638037,0 28.63804,0 0.363101,0.466418 c 0.98335,1.26315 0.92155,-1.039843 0.92155,34.346011 0,21.662855 -0.0633,32.835295 -0.18656,32.911455 -0.10262,0.0634 -0.18936,0.25727 -0.19278,0.43079 -0.007,0.37324 -0.50031,0.96843 -1.072551,1.29495 -0.3225,0.18401 -6.834209,0.23196 -30.86834,0.22729 -30.242179,-0.006 -30.463212,-0.009 -30.963405,-0.38194 z m 21.631595,-5.91999 c 0.56893,-0.68168 0.54763,-1.60618 -0.0552,-2.39655 l -0.475915,-0.62396 -6.193864,0.006 c -5.981156,0.006 -6.209774,0.0194 -6.657172,0.39165 -0.39477,0.32842 -0.463308,0.54383 -0.463308,1.45613 0,1.11739 0.253353,1.58748 0.92553,1.71731 0.190112,0.0367 3.08063,0.0407 6.423373,0.009 l 6.077713,-0.0579 0.418853,-0.50184 z m 18.284511,0.29838 c 0.23087,-0.11566 0.41977,-0.32318 0.41977,-0.46115 0,-0.13797 0.10415,-0.41763 0.23145,-0.62146 0.18421,-0.29498 0.18421,-0.44623 0,-0.74121 -0.1273,-0.20383 -0.23145,-0.46323 -0.23145,-0.57644 0,-0.11321 -0.1889,-0.36342 -0.41977,-0.55602 -0.3916,-0.32668 -0.83276,-0.35061 -6.570561,-0.3564 l -6.15077,-0.006 -0.44521,0.51306 c -0.89575,1.03228 -0.89315,1.78149 0.009,2.68409 l 0.44085,0.44091 6.1483,-0.0544 c 4.083821,-0.0362 6.289251,-0.12505 6.568071,-0.26474 l 1e-5,0 z m 18.721769,-0.11302 c 0.55477,-0.47501 0.4953,-2.22695 -0.0946,-2.78609 -0.44088,-0.41792 -0.47019,-0.41978 -6.605559,-0.41978 l -6.162711,0 -0.57405,0.57405 c -0.4235,0.42351 -0.57406,0.74622 -0.57406,1.23053 0,0.7892 0.59574,1.69277 1.16987,1.77436 0.22878,0.0325 3.131801,0.0302 6.451161,-0.005 5.244649,-0.0558 6.081669,-0.10402 6.389929,-0.36795 l 0,-1e-5 z m -37.08284,-6.18933 c 0.36312,-0.40754 0.49726,-0.75983 0.49726,-1.30597 0,-0.41134 -0.084,-0.74788 -0.18657,-0.74788 -0.10261,0 -0.18656,-0.0957 -0.18656,-0.21265 0,-0.65188 -0.54588,-0.70822 -6.920715,-0.71426 -6.140841,-0.006 -6.274921,0.002 -6.623134,0.38718 -0.490435,0.54246 -0.477768,2.14928 0.02154,2.73243 0.358904,0.41917 0.359967,0.41924 6.629943,0.41924 l 6.270981,0 0.497255,-0.55809 z m 18.374581,0.23159 c 0.61807,-0.62203 0.87829,-1.33797 0.63052,-1.73472 -0.12334,-0.1975 -0.22426,-0.46751 -0.22426,-0.60001 0,-0.13251 -0.16887,-0.38551 -0.37526,-0.56224 -0.33894,-0.2902 -0.98151,-0.32131 -6.636471,-0.32131 -6.8736,0 -6.5576,-0.0522 -7.06736,1.16781 -0.22764,0.54481 -0.22182,0.70046 0.0473,1.26587 0.16879,0.35457 0.43556,0.74695 0.59283,0.87195 0.21149,0.1681 1.9032,0.22882 6.4971,0.23321 5.672161,0.005 6.239311,-0.0224 6.535571,-0.32056 z m 18.613679,-0.0933 c 0.36099,-0.34217 0.44345,-0.61042 0.44607,-1.45107 0.005,-1.74062 0.28648,-1.67393 -7.053549,-1.67393 l -6.306251,0 -0.50132,0.52327 c -0.33261,0.34717 -0.50132,0.7261 -0.50132,1.12597 0,0.57195 0.4209,1.45522 0.83524,1.75276 0.10498,0.0754 2.991541,0.13835 6.414581,0.13992 6.200479,0.003 6.225359,10e-4 6.666549,-0.41692 z m -37.190626,-5.99665 c 0.179566,-0.13631 0.326496,-0.34353 0.326496,-0.46048 0,-0.11695 0.084,-0.21264 0.18656,-0.21264 0.10262,0 0.18657,-0.3778 0.18657,-0.83955 0,-0.46176 -0.084,-0.83956 -0.18657,-0.83956 -0.10261,0 -0.18656,-0.0957 -0.18656,-0.21264 0,-0.65173 -0.546366,-0.70822 -6.908168,-0.71426 l -6.255178,-0.006 -0.367956,0.41978 c -0.504968,0.57608 -0.512333,2.18002 -0.01255,2.73227 0.348096,0.38465 0.484365,0.39261 6.623135,0.38679 4.916065,-0.005 6.338134,-0.0594 6.594218,-0.25377 z m 18.607947,-0.0616 c 0.20639,-0.17672 0.37526,-0.42973 0.37526,-0.56223 0,-0.13251 0.10092,-0.40251 0.22426,-0.60001 0.17768,-0.28451 0.16966,-0.46803 -0.0386,-0.88366 -0.62865,-1.25461 -0.16208,-1.17756 -7.130891,-1.17756 -6.87293,0 -6.53054,-0.0537 -7.08599,1.1111 -0.27302,0.57253 -0.27739,0.71655 -0.0391,1.28685 0.48453,1.15962 0.32711,1.13439 7.11857,1.14089 5.603491,0.005 6.237401,-0.025 6.576491,-0.31538 z m 18.600179,-0.0843 c 0.59957,-0.56326 0.61423,-2.08133 0.0261,-2.70732 l -0.40566,-0.4318 -6.301259,0 -6.301271,0 -0.47592,0.62395 c -0.639779,0.8388 -0.630509,1.71292 0.0254,2.39756 l 0.50133,0.52327 6.249711,0 c 6.159949,0 6.255909,-0.006 6.681509,-0.40566 z m -37.08255,-6.13855 c 0.67135,-0.67135 0.75726,-1.50119 0.24756,-2.39116 -0.442828,-0.77321 -0.736726,-0.8018 -7.522938,-0.73174 -6.65588,0.0687 -6.41674,3e-5 -6.41674,1.84297 0,0.91229 0.06854,1.1277 0.463308,1.45613 0.447062,0.37192 0.677065,0.38565 6.559032,0.39164 l 6.095722,0.006 0.574056,-0.57405 z m 18.437861,0.21145 c 0.23087,-0.19261 0.41977,-0.44282 0.41977,-0.55603 0,-0.11321 0.10415,-0.37261 0.23145,-0.57644 0.18421,-0.29497 0.18421,-0.44623 0,-0.7412 -0.1273,-0.20384 -0.23145,-0.4617 -0.23145,-0.57303 0,-0.11134 -0.14081,-0.34335 -0.31291,-0.51559 -0.27802,-0.27824 -1.00431,-0.3194 -6.512121,-0.36906 l -6.1992,-0.0559 -0.49681,0.4968 c -0.74066,0.74066 -0.89881,1.30113 -0.55483,1.9663 0.71131,1.37552 0.22465,1.28744 7.07442,1.28054 5.748681,-0.006 6.190051,-0.0297 6.581681,-0.3564 z m 18.601589,-0.1123 c 0.65582,-0.65582 0.68709,-2.24125 0.0551,-2.7952 -0.4001,-0.35071 -0.71566,-0.36796 -6.732569,-0.36796 l -6.312801,0 -0.45026,0.52346 c -0.667329,0.77582 -0.617459,1.7993 0.12379,2.54055 l 0.57405,0.57405 6.133891,0 6.133879,0 0.4749,-0.4749 z m -37.01075,-6.227166 c 0.67048,-0.670484 0.7341,-1.650627 0.15951,-2.457566 l -0.385837,-0.54186 -6.495888,0 -6.495889,0 -0.32115,0.676773 c -0.412086,0.868408 -0.253342,2.079416 0.332608,2.537362 0.371426,0.290287 1.02153,0.322757 6.53687,0.326487 l 6.124427,0.004 0.545349,-0.545345 z m 19.011081,0.180468 c 0.12904,-0.241114 0.17873,-2.883226 0.14649,-7.789179 l -0.0488,-7.424297 -7.067701,-0.04891 c -5.06164,-0.03503 -7.1401,0.01118 -7.32276,0.162768 -0.20758,0.172274 -0.25506,1.542293 -0.25506,7.359526 0,4.192776 0.0752,7.345694 0.18195,7.626409 l 0.18195,0.478561 6.99432,0 c 6.750661,0 7.001131,-0.0127 7.189601,-0.36488 z m 18.429979,-7.519799 0.0487,-7.791399 -7.138249,0.04886 -7.138241,0.04886 -0.0488,7.555726 c -0.0268,4.155647 -0.008,7.661791 0.0416,7.791427 0.0711,0.185343 1.59631,0.225253 7.138351,0.186813 l 7.047899,-0.0489 0.0487,-7.791399 z m -37.68862,1.502457 c 0.23088,-0.115873 0.41978,-0.322425 0.41978,-0.459003 0,-0.136579 0.084,-0.248325 0.18656,-0.248325 0.10262,0 0.18657,-0.365539 0.18657,-0.81231 0,-0.60366 -0.11751,-0.93911 -0.45751,-1.30597 l -0.457508,-0.49366 -6.230362,0 c -5.667643,0 -6.263947,0.02949 -6.60221,0.326492 -0.816776,0.71715 -0.743842,2.47403 0.12464,3.002424 0.450234,0.273927 1.186048,0.302985 6.459191,0.255088 3.945138,-0.03583 6.092568,-0.12507 6.370849,-0.264736 z m 0.21886,-6.318694 c 0.65882,-0.65882 0.75078,-1.43974 0.28054,-2.382358 l -0.293519,-0.588365 -6.588213,0 -6.588212,0 -0.311897,0.657274 c -0.220489,0.464647 -0.276902,0.890632 -0.19249,1.453533 0.208919,1.393176 0.229837,1.39734 7.117296,1.416911 l 6.002439,0.01706 0.574056,-0.574053 z m 37.47029,-14.98208 c 0.0351,-4.371593 -0.0117,-6.207896 -0.16277,-6.389925 -0.17752,-0.2139 -4.319629,-0.255435 -25.47362,-0.255435 l -25.261622,0 -0.181949,0.478564 c -0.196153,0.51592 -0.253781,11.267957 -0.06419,11.975456 l 0.112669,0.420439 25.491122,-0.0473 25.49113,-0.0473 0.0492,-6.134491 z"
     id="path4680"
     inkscape:connector-curvature="0" />
</svg>
