<?xml version="1.0" encoding="UTF-8" standalone="no"?>
<svg
   xmlns:osb="http://www.openswatchbook.org/uri/2009/osb"
   xmlns:dc="http://purl.org/dc/elements/1.1/"
   xmlns:cc="http://creativecommons.org/ns#"
   xmlns:rdf="http://www.w3.org/1999/02/22-rdf-syntax-ns#"
   xmlns:svg="http://www.w3.org/2000/svg"
   xmlns="http://www.w3.org/2000/svg"
   xmlns:sodipodi="http://sodipodi.sourceforge.net/DTD/sodipodi-0.dtd"
   xmlns:inkscape="http://www.inkscape.org/namespaces/inkscape"
   width="100"
   height="100"
   viewBox="0 0 100 100"
   id="svg4136"
   version="1.1"
   inkscape:version="0.91 r13725"
   sodipodi:docname="words.svg">
  <metadata
     id="metadata4164">
    <rdf:RDF>
      <cc:Work
         rdf:about="">
        <dc:format>image/svg+xml</dc:format>
        <dc:type
           rdf:resource="http://purl.org/dc/dcmitype/StillImage" />
        <dc:title />
      </cc:Work>
    </rdf:RDF>
  </metadata>
  <defs
     id="defs4162">
    <linearGradient
       id="linearGradient7260"
       osb:paint="solid">
      <stop
         style="stop-color:#5a5dc9;stop-opacity:1;"
         offset="0"
         id="stop7262" />
    </linearGradient>
    <marker
       inkscape:stockid="Arrow1Lend"
       orient="auto"
       refY="0.0"
       refX="0.0"
       id="Arrow1Lend"
       style="overflow:visible;"
       inkscape:isstock="true">
      <path
         id="path7003"
         d="M 0.0,0.0 L 5.0,-5.0 L -12.5,0.0 L 5.0,5.0 L 0.0,0.0 z "
         style="fill-rule:evenodd;stroke:#000000;stroke-width:1.0pt;"
         transform="scale(0.8) rotate(180) translate(12.5,0)" />
    </marker>
    <marker
       inkscape:stockid="Arrow1Lstart"
       orient="auto"
       refY="0.0"
       refX="0.0"
       id="Arrow1Lstart"
       style="overflow:visible"
       inkscape:isstock="true">
      <path
         id="path7000"
         d="M 0.0,0.0 L 5.0,-5.0 L -12.5,0.0 L 5.0,5.0 L 0.0,0.0 z "
         style="fill-rule:evenodd;stroke:#000000;stroke-width:1.0pt"
         transform="scale(0.8) translate(12.5,0)" />
    </marker>
    <filter
       inkscape:collect="always"
       style="color-interpolation-filters:sRGB"
       id="filter4220"
       x="-0.071641109"
       width="1.1432822"
       y="-0.036090399"
       height="1.0721808">
      <feGaussianBlur
         inkscape:collect="always"
         stdDeviation="0.84332934"
         id="feGaussianBlur4222" />
    </filter>
    <filter
       inkscape:collect="always"
       style="color-interpolation-filters:sRGB"
       id="filter4260"
       x="-0.051233483"
       width="1.102467"
       y="-0.027749204"
       height="1.0554984">
      <feGaussianBlur
         inkscape:collect="always"
         stdDeviation="0.59118228"
         id="feGaussianBlur4262" />
    </filter>
    <filter
       inkscape:collect="always"
       style="color-interpolation-filters:sRGB"
       id="filter4298"
       x="-0.030190391"
       width="1.0603808"
       y="-0.04457831"
       height="1.0891566">
      <feGaussianBlur
         inkscape:collect="always"
         stdDeviation="0.86067804"
         id="feGaussianBlur4300" />
    </filter>
  </defs>
  <sodipodi:namedview
     pagecolor="#ffffff"
     bordercolor="#666666"
     borderopacity="1"
     objecttolerance="10"
     gridtolerance="10"
     guidetolerance="10"
     inkscape:pageopacity="0"
     inkscape:pageshadow="2"
     inkscape:window-width="1366"
     inkscape:window-height="705"
     id="namedview4160"
     showgrid="false"
     inkscape:zoom="5.36"
     inkscape:cx="50.377598"
     inkscape:cy="39.558171"
     inkscape:window-x="-8"
     inkscape:window-y="-8"
     inkscape:window-maximized="1"
     inkscape:current-layer="svg4136" />
  <path
     fill="#2394BC"
     d="M50 0c27.614 0 50 22.386 50 50s-22.386 50-50 50-50-22.386-50-50 22.386-50 50-50z"
     id="path4138"
     style="fill:#d38d5f" />
  <g
     id="g4196"
     transform="matrix(1.0248985,0,0,0.9995802,-0.58741744,0.02047988)" />
  <flowRoot
     xml:space="preserve"
     id="flowRoot4203"
     style="fill:black;stroke:none;stroke-opacity:1;stroke-width:1px;stroke-linejoin:miter;stroke-linecap:butt;fill-opacity:1;font-family:sans-serif;font-style:normal;font-weight:normal;font-size:5px;line-height:125%;letter-spacing:0px;word-spacing:0px;"><flowRegion
       id="flowRegion4205"><rect
         id="rect4207"
         width="28.731342"
         height="42.164181"
         x="-23.880596"
         y="30.223881"
         style="font-size:5px;" /></flowRegion><flowPara
       id="flowPara4209"></flowPara></flowRoot>  <text
     xml:space="preserve"
     style="font-style:normal;font-weight:normal;font-size:40px;line-height:125%;font-family:sans-serif;letter-spacing:0px;word-spacing:0px;fill:#000000;fill-opacity:1;stroke:none;stroke-width:1px;stroke-linecap:butt;stroke-linejoin:miter;stroke-opacity:1"
     x="-19.216417"
     y="33.768658"
     id="text4211"
     sodipodi:linespacing="125%"><tspan
       sodipodi:role="line"
       id="tspan4213"
       x="-19.216417"
       y="33.768658" /></text>
  <flowRoot
     xml:space="preserve"
     id="flowRoot4215"
     style="fill:black;stroke:none;stroke-opacity:1;stroke-width:1px;stroke-linejoin:miter;stroke-linecap:butt;fill-opacity:1;font-family:sans-serif;font-style:normal;font-weight:normal;font-size:40px;line-height:125%;letter-spacing:0px;word-spacing:0px"><flowRegion
       id="flowRegion4217"><rect
         id="rect4219"
         width="27.61194"
         height="42.537312"
         x="-25.932837"
         y="28.544777" /></flowRegion><flowPara
       id="flowPara4221"></flowPara></flowRoot>  <g
     id="g4606">
    <path
       sodipodi:nodetypes="ccccc"
       inkscape:connector-curvature="0"
       id="rect4203"
       d="m 49.623648,28.948196 40.078788,0.258941 0.268985,47.890237 c -15.732643,-0.09052 -24.224092,-0.08189 -40.347773,0 z"
       style="opacity:1;fill:#000000;fill-opacity:1" />
    <path
       sodipodi:nodetypes="ccccc"
       inkscape:connector-curvature="0"
       id="rect4165"
       d="m 49.936634,31.070063 35.841527,-0.659615 c -0.03497,6.631302 0.01862,43.855621 -0.09326,44.86907 -5.0652,-0.267321 -22.368759,-0.923378 -33.302256,0.560033 -0.107827,-1.534224 -2.446009,-4.545026 -2.446011,-44.769488 z"
       style="opacity:1;fill:#ffffff;fill-opacity:1;stroke:none;stroke-opacity:1"
       transform="matrix(1.0248985,0,0,0.9995802,-0.58741744,0.02047988)" />
    <path
       transform="matrix(1.0595628,0,0,1.0111012,-2.453288,-0.2344295)"
       inkscape:connector-curvature="0"
       id="path4238"
       d="m 54.920176,75.649477 c 0.576351,-0.932562 7.581212,-3.439445 11.745249,-4.203363 2.396289,-0.439616 4.860406,-0.999015 5.475803,-1.243112 0.615397,-0.244094 2.752541,-0.443809 4.749231,-0.443809 l 0.272104,-0.186567 -4.850746,-20.727495 4.494532,-23.815332 5.668117,-0.130444 c 0,0 -0.0053,0.371375 -0.0053,23.109033 l -0.176079,23.61595 -5.579637,-0.244075 c -7.069404,-0.309244 -11.824818,1.261189 -17.36027,3.214965 -4.686905,1.65427 -4.824019,1.686876 -4.433022,1.054249 z"
       style="opacity:1;fill:#000000;fill-opacity:1;filter:url(#filter4260)"
       sodipodi:nodetypes="csssccccscsscc" />
    <path
       sodipodi:nodetypes="cccccsccc"
       style="opacity:1;fill:#ffffff;fill-opacity:1"
       d="m 65.148312,66.301121 c 3.39491,-0.75618 8.661575,0.435527 11.808108,0.423845 -0.742444,-6.550288 -3.059976,-11.108639 -4.644603,-17.879835 l 4.494532,-23.815332 5.668117,-0.130444 c 0,0 -0.0053,0.371375 -0.0053,23.109033 l 0,23.062394 c -10.607032,-0.167723 -21.463987,1.584248 -31.70458,4.710619 0,0 9.118103,-8.459179 14.383726,-9.48028 z"
       id="path4192"
       inkscape:connector-curvature="0"
       transform="matrix(1.0248985,0,0,0.9995802,-0.58741744,0.02047988)" />
    <path
       sodipodi:nodetypes="ccsssccccsssccc"
       transform="matrix(1.0590492,0,0,1.0097806,-2.2606197,-0.14051271)"
       style="opacity:1;fill:#000000;fill-opacity:1;stroke:none;stroke-opacity:1;filter:url(#filter4220)"
       d="m 50.320576,52.557987 0,-23.598145 2.557274,-1.927381 c 3.207932,-2.417762 3.551668,-2.589349 8.889581,-4.437428 4.955797,-1.71578 9.304246,-2.510969 13.760566,-2.516356 l 3.044381,-0.0037 0,23.624348 -0.06228,24.538863 -1.979857,-0.979839 c -6.875706,0.962512 -12.746861,1.117376 -16.732043,2.961937 -1.767304,0.818004 -3.348738,1.487285 -3.514301,1.487285 -0.1656,0 -1.575046,1.000922 -3.132166,2.224268 l -2.831151,2.22427 0,-23.598143 z"
       id="path4190"
       inkscape:connector-curvature="0" />
    <path
       sodipodi:nodetypes="ccssscccsscccc"
       inkscape:connector-curvature="0"
       id="path4206"
       d="m 50.320576,52.557987 0,-23.598145 2.557274,-1.927381 c 3.207932,-2.417762 3.551668,-2.589349 8.889581,-4.437428 4.955797,-1.71578 9.304246,-2.510969 13.760566,-2.516356 l 3.044381,-0.0037 0,23.624348 0,23.624347 -4.097501,0 c -5.360898,0 -10.617508,1.221151 -14.676683,2.896614 -2.475994,1.02199 -4.887015,2.333736 -6.646467,3.711553 l -2.79817,1.729559 -0.03298,-23.103432 z"
       style="opacity:1;fill:#ffffff;fill-opacity:1"
       transform="matrix(1.0248985,0,0,0.9995802,-0.58741744,0.02047988)" />
    <path
       sodipodi:nodetypes="cccccsscccccsscccccscc"
       inkscape:connector-curvature="0"
       id="path4288"
       d="M 48.506114,76.979465 C 48.604293,70.396937 48.097903,44.892842 48.324748,37.41484 l 0.299488,-8.096768 0.831417,0.131923 2.018723,-0.857499 0.329808,25.263236 c 0.147755,11.318022 -0.976217,20.303131 -0.782331,19.66486 0.31181,-1.026475 2.653846,-0.209751 3.478071,-0.85901 3.260549,-1.781639 7.015003,-2.740109 11.551931,-4.059448 3.462587,-0.463327 6.052177,-0.694292 10.039643,-0.959827 l 2.553017,-6.6e-4 c 0.05102,0.311479 -0.01726,0.800204 -0.752575,1.709556 -1.981198,0.144675 -5.486917,-0.735422 -9.465469,0.142336 -2.960642,0.653183 -4.169141,0.948848 -5.26883,1.289041 -4.092951,1.266168 -11.709163,5.855944 -12.128503,6.249456 -0.834149,0.263594 0.933569,-1.38911 2.509517,-2.043635 7.042708,-2.870848 14.514502,-3.089018 20.98925,-3.58393 0.991507,-0.07914 6.18489,0.65123 6.600988,-0.315234 0.03536,0.831478 0.37531,1.570104 0.336806,1.608605 -0.0242,0.02419 -1.641266,0.05316 -3.02916,0.225596 -10.646451,1.322791 -17.362378,2.816589 -23.368794,4.043442 -4.307985,0.944188 -2.840922,-0.198147 -6.561631,0.01259 z"
       style="opacity:1;fill:#000000;fill-opacity:1;stroke:none;stroke-opacity:1;filter:url(#filter4298)"
       transform="matrix(1.0248985,0,0,0.9995802,-0.58741744,0.02047988)" />
    <path
       style="opacity:1;fill:#808080;fill-opacity:1;stroke:none;stroke-opacity:1"
       d="m 75.121958,24.706302 c -7.365925,-0.525327 -14.420737,2.17718 -19.399535,5.418345 0.01187,0.582583 -3.64e-4,0.919122 -0.03167,1.498958 5.285855,-2.871656 11.828027,-5.690936 19.455351,-5.54861 -0.0149,-0.360446 -0.0058,-0.778099 -0.02414,-1.368693 z"
       id="path4580"
       inkscape:connector-curvature="0"
       sodipodi:nodetypes="ccccc" />
    <path
       sodipodi:nodetypes="ccccc"
       inkscape:connector-curvature="0"
       id="path4582"
       d="m 75.121958,28.706302 c -7.365926,-0.525327 -14.420737,2.17718 -19.399535,5.418345 0.01187,0.582583 -3.64e-4,0.919122 -0.03167,1.498958 5.285855,-2.871656 11.828027,-5.690936 19.455351,-5.54861 -0.0149,-0.360446 -0.0058,-0.778099 -0.02414,-1.368693 z"
       style="opacity:1;fill:#808080;fill-opacity:1;stroke:none;stroke-opacity:1" />
    <path
       style="opacity:1;fill:#808080;fill-opacity:1;stroke:none;stroke-opacity:1"
       d="m 75.121958,32.706302 c -7.365926,-0.525327 -14.420737,2.17718 -19.399535,5.418345 0.01187,0.582583 -3.64e-4,0.919122 -0.03167,1.498958 5.285855,-2.871656 11.828027,-5.690936 19.455351,-5.54861 -0.0149,-0.360446 -0.0058,-0.778099 -0.02414,-1.368693 z"
       id="path4584"
       inkscape:connector-curvature="0"
       sodipodi:nodetypes="ccccc" />
    <path
       sodipodi:nodetypes="ccccc"
       inkscape:connector-curvature="0"
       id="path4586"
       d="m 75.121958,36.706302 c -7.365926,-0.525327 -14.420737,2.17718 -19.399535,5.418345 0.01187,0.582583 -3.64e-4,0.919122 -0.03167,1.498958 5.285855,-2.871656 11.828027,-5.690936 19.455351,-5.54861 -0.0149,-0.360446 -0.0058,-0.778099 -0.02414,-1.368693 z"
       style="opacity:1;fill:#808080;fill-opacity:1;stroke:none;stroke-opacity:1" />
    <path
       style="opacity:1;fill:#808080;fill-opacity:1;stroke:none;stroke-opacity:1"
       d="m 75.121958,40.706302 c -7.365926,-0.525327 -14.420737,2.17718 -19.399535,5.418345 0.01187,0.582583 -3.64e-4,0.919122 -0.03167,1.498958 5.285855,-2.871656 11.828027,-5.690936 19.455351,-5.54861 -0.0149,-0.360446 -0.0058,-0.778099 -0.02414,-1.368693 z"
       id="path4588"
       inkscape:connector-curvature="0"
       sodipodi:nodetypes="ccccc" />
    <path
       sodipodi:nodetypes="ccccc"
       inkscape:connector-curvature="0"
       id="path4590"
       d="m 75.121958,44.706302 c -7.365926,-0.525327 -14.420737,2.17718 -19.399535,5.418345 0.01187,0.582583 -3.64e-4,0.919122 -0.03167,1.498958 5.285855,-2.871656 11.828027,-5.690936 19.455351,-5.54861 -0.0149,-0.360446 -0.0058,-0.778099 -0.02414,-1.368693 z"
       style="opacity:1;fill:#808080;fill-opacity:1;stroke:none;stroke-opacity:1" />
    <path
       style="opacity:1;fill:#808080;fill-opacity:1;stroke:none;stroke-opacity:1"
       d="m 75.121958,48.706302 c -7.365926,-0.525327 -14.420737,2.17718 -19.399535,5.418345 0.01187,0.582583 -3.64e-4,0.919122 -0.03167,1.498958 5.285855,-2.871656 11.828027,-5.690936 19.455351,-5.54861 -0.0149,-0.360446 -0.0058,-0.778099 -0.02414,-1.368693 z"
       id="path4592"
       inkscape:connector-curvature="0"
       sodipodi:nodetypes="ccccc" />
    <path
       sodipodi:nodetypes="ccccc"
       inkscape:connector-curvature="0"
       id="path4594"
       d="m 75.121958,52.706302 c -7.365926,-0.525327 -14.420737,2.17718 -19.399535,5.418345 0.01187,0.582583 -3.64e-4,0.919122 -0.03167,1.498958 5.285855,-2.871656 11.828027,-5.690936 19.455351,-5.54861 -0.0149,-0.360446 -0.0058,-0.778099 -0.02414,-1.368693 z"
       style="opacity:1;fill:#808080;fill-opacity:1;stroke:none;stroke-opacity:1" />
    <path
       style="opacity:1;fill:#808080;fill-opacity:1;stroke:none;stroke-opacity:1"
       d="m 75.121958,56.706302 c -7.365926,-0.525327 -14.420737,2.17718 -19.399535,5.418345 0.01187,0.582583 -3.64e-4,0.919122 -0.03167,1.498958 5.285855,-2.871656 11.828027,-5.690936 19.455351,-5.54861 -0.0149,-0.360446 -0.0058,-0.778099 -0.02414,-1.368693 z"
       id="path4596"
       inkscape:connector-curvature="0"
       sodipodi:nodetypes="ccccc" />
    <path
       sodipodi:nodetypes="ccccc"
       inkscape:connector-curvature="0"
       id="path4598"
       d="m 75.121958,60.706302 c -7.365926,-0.525327 -14.420737,2.17718 -19.399535,5.418345 0.01187,0.582583 -3.64e-4,0.919122 -0.03167,1.498958 5.285855,-2.871656 11.828027,-5.690936 19.455351,-5.54861 -0.0149,-0.360446 -0.0058,-0.778099 -0.02414,-1.368693 z"
       style="opacity:1;fill:#808080;fill-opacity:1;stroke:none;stroke-opacity:1" />
  </g>
  <g
     id="g4625"
     transform="matrix(-1,0,0,1,99.82403,0)">
    <path
       style="opacity:1;fill:#000000;fill-opacity:1"
       d="m 49.623648,28.948196 40.078788,0.258941 0.268985,47.890237 c -15.732643,-0.09052 -24.224092,-0.08189 -40.347773,0 z"
       id="path4627"
       inkscape:connector-curvature="0"
       sodipodi:nodetypes="ccccc" />
    <path
       transform="matrix(1.0248985,0,0,0.9995802,-0.58741744,0.02047988)"
       style="opacity:1;fill:#ffffff;fill-opacity:1;stroke:none;stroke-opacity:1"
       d="m 49.936634,31.070063 35.841527,-0.659615 c -0.03497,6.631302 0.01862,43.855621 -0.09326,44.86907 -5.0652,-0.267321 -22.368759,-0.923378 -33.302256,0.560033 -0.107827,-1.534224 -2.446009,-4.545026 -2.446011,-44.769488 z"
       id="path4629"
       inkscape:connector-curvature="0"
       sodipodi:nodetypes="ccccc" />
    <path
       sodipodi:nodetypes="csssccccscsscc"
       style="opacity:1;fill:#000000;fill-opacity:1;filter:url(#filter4260)"
       d="m 54.920176,75.649477 c 0.576351,-0.932562 7.581212,-3.439445 11.745249,-4.203363 2.396289,-0.439616 4.860406,-0.999015 5.475803,-1.243112 0.615397,-0.244094 2.752541,-0.443809 4.749231,-0.443809 l 0.272104,-0.186567 -4.850746,-20.727495 4.494532,-23.815332 5.668117,-0.130444 c 0,0 -0.0053,0.371375 -0.0053,23.109033 l -0.176079,23.61595 -5.579637,-0.244075 c -7.069404,-0.309244 -11.824818,1.261189 -17.36027,3.214965 -4.686905,1.65427 -4.824019,1.686876 -4.433022,1.054249 z"
       id="path4631"
       inkscape:connector-curvature="0"
       transform="matrix(1.0595628,0,0,1.0111012,-2.453288,-0.2344295)" />
    <path
       transform="matrix(1.0248985,0,0,0.9995802,-0.58741744,0.02047988)"
       inkscape:connector-curvature="0"
       id="path4633"
       d="m 65.148312,66.301121 c 3.39491,-0.75618 8.661575,0.435527 11.808108,0.423845 -0.742444,-6.550288 -3.059976,-11.108639 -4.644603,-17.879835 l 4.494532,-23.815332 5.668117,-0.130444 c 0,0 -0.0053,0.371375 -0.0053,23.109033 l 0,23.062394 c -10.607032,-0.167723 -21.463987,1.584248 -31.70458,4.710619 0,0 9.118103,-8.459179 14.383726,-9.48028 z"
       style="opacity:1;fill:#ffffff;fill-opacity:1"
       sodipodi:nodetypes="cccccsccc" />
    <path
       inkscape:connector-curvature="0"
       id="path4635"
       d="m 50.320576,52.557987 0,-23.598145 2.557274,-1.927381 c 3.207932,-2.417762 3.551668,-2.589349 8.889581,-4.437428 4.955797,-1.71578 9.304246,-2.510969 13.760566,-2.516356 l 3.044381,-0.0037 0,23.624348 -0.06228,24.538863 -1.979857,-0.979839 c -6.875706,0.962512 -12.746861,1.117376 -16.732043,2.961937 -1.767304,0.818004 -3.348738,1.487285 -3.514301,1.487285 -0.1656,0 -1.575046,1.000922 -3.132166,2.224268 l -2.831151,2.22427 0,-23.598143 z"
       style="opacity:1;fill:#000000;fill-opacity:1;stroke:none;stroke-opacity:1;filter:url(#filter4220)"
       transform="matrix(1.0590492,0,0,1.0097806,-2.2606197,-0.14051271)"
       sodipodi:nodetypes="ccsssccccsssccc" />
    <path
       transform="matrix(1.0248985,0,0,0.9995802,-0.58741744,0.02047988)"
       style="opacity:1;fill:#ffffff;fill-opacity:1"
       d="m 50.320576,52.557987 0,-23.598145 2.557274,-1.927381 c 3.207932,-2.417762 3.551668,-2.589349 8.889581,-4.437428 4.955797,-1.71578 9.304246,-2.510969 13.760566,-2.516356 l 3.044381,-0.0037 0,23.624348 0,23.624347 -4.097501,0 c -5.360898,0 -10.617508,1.221151 -14.676683,2.896614 -2.475994,1.02199 -4.887015,2.333736 -6.646467,3.711553 l -2.79817,1.729559 -0.03298,-23.103432 z"
       id="path4637"
       inkscape:connector-curvature="0"
       sodipodi:nodetypes="ccssscccsscccc" />
    <path
       transform="matrix(1.0248985,0,0,0.9995802,-0.58741744,0.02047988)"
       style="opacity:1;fill:#000000;fill-opacity:1;stroke:none;stroke-opacity:1;filter:url(#filter4298)"
       d="M 48.506114,76.979465 C 48.604293,70.396937 48.097903,44.892842 48.324748,37.41484 l 0.299488,-8.096768 0.831417,0.131923 2.018723,-0.857499 0.329808,25.263236 c 0.147755,11.318022 -0.976217,20.303131 -0.782331,19.66486 0.31181,-1.026475 2.653846,-0.209751 3.478071,-0.85901 3.260549,-1.781639 7.015003,-2.740109 11.551931,-4.059448 3.462587,-0.463327 6.052177,-0.694292 10.039643,-0.959827 l 2.553017,-6.6e-4 c 0.05102,0.311479 -0.01726,0.800204 -0.752575,1.709556 -1.981198,0.144675 -5.486917,-0.735422 -9.465469,0.142336 -2.960642,0.653183 -4.169141,0.948848 -5.26883,1.289041 -4.092951,1.266168 -11.709163,5.855944 -12.128503,6.249456 -0.834149,0.263594 0.933569,-1.38911 2.509517,-2.043635 7.042708,-2.870848 14.514502,-3.089018 20.98925,-3.58393 0.991507,-0.07914 6.18489,0.65123 6.600988,-0.315234 0.03536,0.831478 0.37531,1.570104 0.336806,1.608605 -0.0242,0.02419 -1.641266,0.05316 -3.02916,0.225596 -10.646451,1.322791 -17.362378,2.816589 -23.368794,4.043442 -4.307985,0.944188 -2.840922,-0.198147 -6.561631,0.01259 z"
       id="path4639"
       inkscape:connector-curvature="0"
       sodipodi:nodetypes="cccccsscccccsscccccscc" />
    <path
       sodipodi:nodetypes="ccccc"
       inkscape:connector-curvature="0"
       id="path4641"
       d="m 75.121958,24.706302 c -7.365925,-0.525327 -14.420737,2.17718 -19.399535,5.418345 0.01187,0.582583 -3.64e-4,0.919122 -0.03167,1.498958 5.285855,-2.871656 11.828027,-5.690936 19.455351,-5.54861 -0.0149,-0.360446 -0.0058,-0.778099 -0.02414,-1.368693 z"
       style="opacity:1;fill:#808080;fill-opacity:1;stroke:none;stroke-opacity:1" />
    <path
       style="opacity:1;fill:#808080;fill-opacity:1;stroke:none;stroke-opacity:1"
       d="m 75.121958,28.706302 c -7.365926,-0.525327 -14.420737,2.17718 -19.399535,5.418345 0.01187,0.582583 -3.64e-4,0.919122 -0.03167,1.498958 5.285855,-2.871656 11.828027,-5.690936 19.455351,-5.54861 -0.0149,-0.360446 -0.0058,-0.778099 -0.02414,-1.368693 z"
       id="path4643"
       inkscape:connector-curvature="0"
       sodipodi:nodetypes="ccccc" />
    <path
       sodipodi:nodetypes="ccccc"
       inkscape:connector-curvature="0"
       id="path4645"
       d="m 75.121958,32.706302 c -7.365926,-0.525327 -14.420737,2.17718 -19.399535,5.418345 0.01187,0.582583 -3.64e-4,0.919122 -0.03167,1.498958 5.285855,-2.871656 11.828027,-5.690936 19.455351,-5.54861 -0.0149,-0.360446 -0.0058,-0.778099 -0.02414,-1.368693 z"
       style="opacity:1;fill:#808080;fill-opacity:1;stroke:none;stroke-opacity:1" />
    <path
       style="opacity:1;fill:#808080;fill-opacity:1;stroke:none;stroke-opacity:1"
       d="m 75.121958,36.706302 c -7.365926,-0.525327 -14.420737,2.17718 -19.399535,5.418345 0.01187,0.582583 -3.64e-4,0.919122 -0.03167,1.498958 5.285855,-2.871656 11.828027,-5.690936 19.455351,-5.54861 -0.0149,-0.360446 -0.0058,-0.778099 -0.02414,-1.368693 z"
       id="path4647"
       inkscape:connector-curvature="0"
       sodipodi:nodetypes="ccccc" />
    <path
       sodipodi:nodetypes="ccccc"
       inkscape:connector-curvature="0"
       id="path4649"
       d="m 75.121958,40.706302 c -7.365926,-0.525327 -14.420737,2.17718 -19.399535,5.418345 0.01187,0.582583 -3.64e-4,0.919122 -0.03167,1.498958 5.285855,-2.871656 11.828027,-5.690936 19.455351,-5.54861 -0.0149,-0.360446 -0.0058,-0.778099 -0.02414,-1.368693 z"
       style="opacity:1;fill:#808080;fill-opacity:1;stroke:none;stroke-opacity:1" />
    <path
       style="opacity:1;fill:#808080;fill-opacity:1;stroke:none;stroke-opacity:1"
       d="m 75.121958,44.706302 c -7.365926,-0.525327 -14.420737,2.17718 -19.399535,5.418345 0.01187,0.582583 -3.64e-4,0.919122 -0.03167,1.498958 5.285855,-2.871656 11.828027,-5.690936 19.455351,-5.54861 -0.0149,-0.360446 -0.0058,-0.778099 -0.02414,-1.368693 z"
       id="path4651"
       inkscape:connector-curvature="0"
       sodipodi:nodetypes="ccccc" />
    <path
       sodipodi:nodetypes="ccccc"
       inkscape:connector-curvature="0"
       id="path4653"
       d="m 75.121958,48.706302 c -7.365926,-0.525327 -14.420737,2.17718 -19.399535,5.418345 0.01187,0.582583 -3.64e-4,0.919122 -0.03167,1.498958 5.285855,-2.871656 11.828027,-5.690936 19.455351,-5.54861 -0.0149,-0.360446 -0.0058,-0.778099 -0.02414,-1.368693 z"
       style="opacity:1;fill:#808080;fill-opacity:1;stroke:none;stroke-opacity:1" />
    <path
       style="opacity:1;fill:#808080;fill-opacity:1;stroke:none;stroke-opacity:1"
       d="m 75.121958,52.706302 c -7.365926,-0.525327 -14.420737,2.17718 -19.399535,5.418345 0.01187,0.582583 -3.64e-4,0.919122 -0.03167,1.498958 5.285855,-2.871656 11.828027,-5.690936 19.455351,-5.54861 -0.0149,-0.360446 -0.0058,-0.778099 -0.02414,-1.368693 z"
       id="path4655"
       inkscape:connector-curvature="0"
       sodipodi:nodetypes="ccccc" />
    <path
       sodipodi:nodetypes="ccccc"
       inkscape:connector-curvature="0"
       id="path4657"
       d="m 75.121958,56.706302 c -7.365926,-0.525327 -14.420737,2.17718 -19.399535,5.418345 0.01187,0.582583 -3.64e-4,0.919122 -0.03167,1.498958 5.285855,-2.871656 11.828027,-5.690936 19.455351,-5.54861 -0.0149,-0.360446 -0.0058,-0.778099 -0.02414,-1.368693 z"
       style="opacity:1;fill:#808080;fill-opacity:1;stroke:none;stroke-opacity:1" />
    <path
       style="opacity:1;fill:#808080;fill-opacity:1;stroke:none;stroke-opacity:1"
       d="m 75.121958,60.706302 c -7.365926,-0.525327 -14.420737,2.17718 -19.399535,5.418345 0.01187,0.582583 -3.64e-4,0.919122 -0.03167,1.498958 5.285855,-2.871656 11.828027,-5.690936 19.455351,-5.54861 -0.0149,-0.360446 -0.0058,-0.778099 -0.02414,-1.368693 z"
       id="path4659"
       inkscape:connector-curvature="0"
       sodipodi:nodetypes="ccccc" />
  </g>
</svg>
